<svg width="1820" height="393" viewBox="0 0 1820 393" fill="none" xmlns="http://www.w3.org/2000/svg">
    <path d="M210.065 72.5273C201.302 86.0734 205.139 104.133 218.636 112.864C232.132 121.596 250.178 117.693 258.941 104.147C267.705 90.6006 263.867 72.5411 250.371 63.8097C236.874 55.0782 218.828 58.9813 210.065 72.5273Z"
          fill="url(#paint0_linear_1_2)"/>
    <path d="M352.862 162.642C356.207 178.505 354.032 193.335 346.336 207.131C346.07 207.609 346.212 207.849 346.762 207.849C365.581 207.86 384.223 207.852 402.688 207.822C422.14 207.787 421.147 232.467 403.45 232.511C371.586 232.594 339.722 232.638 307.858 232.644C307.557 232.644 307.329 232.774 307.175 233.034C296.917 250.38 287.103 267.964 276.827 285.292C276.502 285.841 275.825 287.025 274.797 288.844C269.82 297.65 264.808 306.432 259.76 315.19C256.241 321.294 251.249 331.446 246.444 338.197C244.493 340.943 241.559 342.741 237.64 343.592C229.731 345.319 224.306 341.412 220.573 334.777C203.834 305.083 186.705 275.609 169.798 246.012C167.191 241.441 164.393 237.041 161.402 232.813C161.195 232.523 160.914 232.384 160.56 232.396C158.981 232.461 157.344 232.497 155.648 232.503C125.87 232.591 96.0954 232.63 66.3236 232.618C61.8847 232.618 58.3738 231.307 55.7908 228.684C48.175 220.96 52.6257 209.089 63.8677 207.999C65.0085 207.887 66.3531 207.831 67.9017 207.831C86.1478 207.837 104.394 207.846 122.64 207.857C123.024 207.857 123.128 207.686 122.95 207.344C121.576 204.651 119.891 201.825 118.899 199.318C115.222 190.028 113.913 180.316 114.971 170.181C118.154 141.913 142.243 116.842 171.819 117.268C177.006 117.347 186.998 116.284 192.122 117.914C199.57 120.271 203.825 129.564 198.585 136.456C192.397 144.615 179.018 141.133 168.503 142.161C159.487 143.047 151.126 148.194 145.886 155.201C138.537 165.008 137.561 178.322 141.223 189.936C143.085 195.854 146.746 201.966 150.328 207.397C150.582 207.781 150.937 207.964 151.392 207.946C161.464 207.663 172.014 206.245 179.178 215.122C181.004 217.378 182.789 220.021 184.533 223.05C188.718 230.332 192.926 237.605 197.158 244.869C197.306 245.129 197.424 245.115 197.513 244.825C198.606 241.217 199.274 238.851 199.516 237.729C204.889 212.759 210.487 187.837 216.308 162.961C217.378 158.372 218.472 155.168 219.589 153.349C225.121 144.349 237.631 142.028 245.992 148.574C250.637 152.207 252.242 156.636 253.643 162.881C259.749 190.161 265.677 217.443 271.428 244.728C271.552 245.306 271.774 245.348 272.093 244.852C272.465 244.276 272.643 243.417 272.988 242.823C276.517 236.675 280.078 230.545 283.672 224.432C289.417 214.661 292.502 208.983 303.496 208.203C308.295 207.86 313.098 207.769 317.903 207.928C318.076 207.934 318.248 207.895 318.402 207.816C318.555 207.737 318.686 207.62 318.781 207.477C322.026 202.604 325.421 197.183 327.31 191.965C333.605 174.593 329.305 156.477 313.08 146.422C303.576 140.54 294.603 141.913 284.142 141.833C280.448 141.803 277.865 141.544 276.393 141.053C270.914 139.228 267.837 134.037 268.325 128.368C268.937 121.316 275.613 117.161 282.431 117.179C291.066 117.206 300.889 116.603 308.656 118.375C330.555 123.362 347.462 140.965 352.862 162.642ZM234.572 309.202C234.588 309.23 234.611 309.254 234.639 309.27C234.667 309.287 234.699 309.295 234.732 309.295C234.765 309.295 234.798 309.287 234.828 309.27C234.857 309.254 234.882 309.23 234.9 309.202L252.978 276.672C253.451 275.822 253.584 274.921 253.377 273.97L235.042 189.227C234.883 188.471 234.717 188.471 234.546 189.227C228.277 217.319 222.745 245.8 215.644 273.749C215.46 274.447 215.529 275.188 215.839 275.84C221.132 287.055 228.251 297.978 234.572 309.202Z"
          fill="url(#paint1_linear_1_2)"/>
    <path d="M470.664 285C467.995 285 465.75 284.09 463.93 282.27C462.11 280.45 461.2 278.205 461.2 275.536V152.322C461.2 149.531 462.11 147.287 463.93 145.588C465.75 143.768 467.995 142.858 470.664 142.858H507.064C516.164 142.858 524.233 144.86 531.27 148.864C538.307 152.868 543.767 158.449 547.65 165.608C551.654 172.645 553.656 180.775 553.656 189.996C553.656 198.853 551.654 206.74 547.65 213.656C543.767 220.572 538.307 225.971 531.27 229.854C524.233 233.737 516.164 235.678 507.064 235.678H480.128V275.536C480.128 278.205 479.218 280.45 477.398 282.27C475.699 284.09 473.455 285 470.664 285ZM480.128 218.206H507.064C512.645 218.206 517.559 216.993 521.806 214.566C526.053 212.139 529.389 208.803 531.816 204.556C534.243 200.309 535.456 195.456 535.456 189.996C535.456 184.172 534.243 179.076 531.816 174.708C529.389 170.219 526.053 166.7 521.806 164.152C517.559 161.604 512.645 160.33 507.064 160.33H480.128V218.206ZM614.635 285.91C606.263 285.91 598.74 284.151 592.067 280.632C585.515 276.992 580.297 271.714 576.415 264.798C572.653 257.882 570.773 249.389 570.773 239.318V194.546C570.773 191.877 571.622 189.693 573.321 187.994C575.141 186.174 577.385 185.264 580.055 185.264C582.724 185.264 584.908 186.174 586.607 187.994C588.427 189.693 589.337 191.877 589.337 194.546V239.318C589.337 246.113 590.611 251.755 593.159 256.244C595.707 260.612 599.165 263.888 603.533 266.072C607.901 268.135 612.815 269.166 618.275 269.166C623.492 269.166 628.103 268.135 632.107 266.072C636.232 264.009 639.508 261.219 641.935 257.7C644.361 254.181 645.575 250.238 645.575 245.87H657.041C657.041 253.393 655.16 260.187 651.399 266.254C647.759 272.321 642.723 277.113 636.293 280.632C629.983 284.151 622.764 285.91 614.635 285.91ZM654.857 285C652.187 285 649.943 284.151 648.123 282.452C646.424 280.632 645.575 278.387 645.575 275.718V194.546C645.575 191.755 646.424 189.511 648.123 187.812C649.943 186.113 652.187 185.264 654.857 185.264C657.647 185.264 659.892 186.113 661.591 187.812C663.289 189.511 664.139 191.755 664.139 194.546V275.718C664.139 278.387 663.289 280.632 661.591 282.452C659.892 284.151 657.647 285 654.857 285ZM746.883 285.728C737.419 285.728 728.926 283.544 721.403 279.176C713.88 274.687 707.935 268.62 703.567 260.976C699.199 253.332 696.954 244.717 696.833 235.132V152.14C696.833 149.349 697.682 147.105 699.381 145.406C701.201 143.707 703.446 142.858 706.115 142.858C708.906 142.858 711.15 143.707 712.849 145.406C714.548 147.105 715.397 149.349 715.397 152.14V201.28C719.644 196.184 724.74 192.18 730.685 189.268C736.752 186.235 743.364 184.718 750.523 184.718C759.38 184.718 767.328 186.963 774.365 191.452C781.402 195.82 786.923 201.826 790.927 209.47C795.052 216.993 797.115 225.547 797.115 235.132C797.115 244.717 794.87 253.332 790.381 260.976C786.013 268.62 780.068 274.687 772.545 279.176C765.022 283.544 756.468 285.728 746.883 285.728ZM746.883 269.348C753.071 269.348 758.592 267.892 763.445 264.98C768.298 261.947 772.12 257.821 774.911 252.604C777.823 247.387 779.279 241.563 779.279 235.132C779.279 228.58 777.823 222.756 774.911 217.66C772.12 212.564 768.298 208.56 763.445 205.648C758.592 202.615 753.071 201.098 746.883 201.098C740.816 201.098 735.296 202.615 730.321 205.648C725.468 208.56 721.646 212.564 718.855 217.66C716.064 222.756 714.669 228.58 714.669 235.132C714.669 241.563 716.064 247.387 718.855 252.604C721.646 257.821 725.468 261.947 730.321 264.98C735.296 267.892 740.816 269.348 746.883 269.348ZM848.462 285C843.123 285 838.391 283.544 834.266 280.632C830.141 277.72 826.925 273.777 824.62 268.802C822.315 263.706 821.162 257.882 821.162 251.33V151.958C821.162 149.289 822.011 147.105 823.71 145.406C825.409 143.707 827.593 142.858 830.262 142.858C832.931 142.858 835.115 143.707 836.814 145.406C838.513 147.105 839.362 149.289 839.362 151.958V251.33C839.362 255.819 840.211 259.52 841.91 262.432C843.609 265.344 845.793 266.8 848.462 266.8H853.012C855.439 266.8 857.38 267.649 858.836 269.348C860.413 271.047 861.202 273.231 861.202 275.9C861.202 278.569 860.049 280.753 857.744 282.452C855.439 284.151 852.466 285 848.826 285H848.462ZM890.468 285C887.799 285 885.554 284.151 883.734 282.452C882.036 280.632 881.186 278.387 881.186 275.718V194.728C881.186 191.937 882.036 189.693 883.734 187.994C885.554 186.295 887.799 185.446 890.468 185.446C893.259 185.446 895.504 186.295 897.202 187.994C898.901 189.693 899.75 191.937 899.75 194.728V275.718C899.75 278.387 898.901 280.632 897.202 282.452C895.504 284.151 893.259 285 890.468 285ZM890.468 169.248C887.192 169.248 884.341 168.095 881.914 165.79C879.609 163.363 878.456 160.512 878.456 157.236C878.456 153.96 879.609 151.169 881.914 148.864C884.341 146.437 887.192 145.224 890.468 145.224C893.744 145.224 896.535 146.437 898.84 148.864C901.267 151.169 902.48 153.96 902.48 157.236C902.48 160.512 901.267 163.363 898.84 165.79C896.535 168.095 893.744 169.248 890.468 169.248ZM979.422 285.728C969.716 285.728 961.04 283.544 953.396 279.176C945.874 274.687 939.928 268.681 935.56 261.158C931.314 253.514 929.19 244.899 929.19 235.314C929.19 225.486 931.314 216.75 935.56 209.106C939.807 201.462 945.631 195.517 953.032 191.27C960.434 186.902 968.927 184.718 978.512 184.718C985.671 184.718 992.223 186.113 998.168 188.904C1004.11 191.573 1009.45 195.638 1014.18 201.098C1015.88 203.039 1016.49 205.041 1016 207.104C1015.52 209.167 1014.18 210.987 1012 212.564C1010.3 213.777 1008.42 214.202 1006.36 213.838C1004.3 213.353 1002.41 212.261 1000.72 210.562C994.771 204.253 987.37 201.098 978.512 201.098C972.324 201.098 966.864 202.554 962.132 205.466C957.4 208.257 953.7 212.2 951.03 217.296C948.361 222.392 947.026 228.398 947.026 235.314C947.026 241.866 948.361 247.69 951.03 252.786C953.821 257.882 957.643 261.947 962.496 264.98C967.35 267.892 972.992 269.348 979.422 269.348C983.669 269.348 987.37 268.863 990.524 267.892C993.8 266.8 996.773 265.162 999.442 262.978C1001.38 261.401 1003.39 260.551 1005.45 260.43C1007.51 260.187 1009.33 260.733 1010.91 262.068C1012.97 263.767 1014.12 265.708 1014.37 267.892C1014.61 269.955 1013.88 271.835 1012.18 273.534C1003.45 281.663 992.526 285.728 979.422 285.728ZM1054.88 285C1052.21 285 1049.96 284.09 1048.14 282.27C1046.32 280.45 1045.41 278.205 1045.41 275.536V152.322C1045.41 149.531 1046.32 147.287 1048.14 145.588C1049.96 143.768 1052.21 142.858 1054.88 142.858H1091.28C1100.38 142.858 1108.45 144.86 1115.48 148.864C1122.52 152.868 1127.98 158.449 1131.86 165.608C1135.87 172.645 1137.87 180.775 1137.87 189.996C1137.87 198.853 1135.87 206.74 1131.86 213.656C1127.98 220.572 1122.52 225.971 1115.48 229.854C1108.45 233.737 1100.38 235.678 1091.28 235.678H1064.34V275.536C1064.34 278.205 1063.43 280.45 1061.61 282.27C1059.91 284.09 1057.67 285 1054.88 285ZM1064.34 218.206H1091.28C1096.86 218.206 1101.77 216.993 1106.02 214.566C1110.27 212.139 1113.6 208.803 1116.03 204.556C1118.46 200.309 1119.67 195.456 1119.67 189.996C1119.67 184.172 1118.46 179.076 1116.03 174.708C1113.6 170.219 1110.27 166.7 1106.02 164.152C1101.77 161.604 1096.86 160.33 1091.28 160.33H1064.34V218.206ZM1198.85 285.91C1190.48 285.91 1182.95 284.151 1176.28 280.632C1169.73 276.992 1164.51 271.714 1160.63 264.798C1156.87 257.882 1154.99 249.389 1154.99 239.318V194.546C1154.99 191.877 1155.83 189.693 1157.53 187.994C1159.35 186.174 1161.6 185.264 1164.27 185.264C1166.94 185.264 1169.12 186.174 1170.82 187.994C1172.64 189.693 1173.55 191.877 1173.55 194.546V239.318C1173.55 246.113 1174.82 251.755 1177.37 256.244C1179.92 260.612 1183.38 263.888 1187.75 266.072C1192.11 268.135 1197.03 269.166 1202.49 269.166C1207.7 269.166 1212.32 268.135 1216.32 266.072C1220.44 264.009 1223.72 261.219 1226.15 257.7C1228.57 254.181 1229.79 250.238 1229.79 245.87H1241.25C1241.25 253.393 1239.37 260.187 1235.61 266.254C1231.97 272.321 1226.94 277.113 1220.51 280.632C1214.2 284.151 1206.98 285.91 1198.85 285.91ZM1239.07 285C1236.4 285 1234.16 284.151 1232.34 282.452C1230.64 280.632 1229.79 278.387 1229.79 275.718V194.546C1229.79 191.755 1230.64 189.511 1232.34 187.812C1234.16 186.113 1236.4 185.264 1239.07 185.264C1241.86 185.264 1244.1 186.113 1245.8 187.812C1247.5 189.511 1248.35 191.755 1248.35 194.546V275.718C1248.35 278.387 1247.5 280.632 1245.8 282.452C1244.1 284.151 1241.86 285 1239.07 285ZM1304.71 285C1299.37 285 1294.64 283.544 1290.51 280.632C1286.38 277.72 1283.17 273.777 1280.86 268.802C1278.56 263.706 1277.41 257.882 1277.41 251.33V151.958C1277.41 149.289 1278.26 147.105 1279.95 145.406C1281.65 143.707 1283.84 142.858 1286.51 142.858C1289.18 142.858 1291.36 143.707 1293.06 145.406C1294.76 147.105 1295.61 149.289 1295.61 151.958V251.33C1295.61 255.819 1296.46 259.52 1298.15 262.432C1299.85 265.344 1302.04 266.8 1304.71 266.8H1309.26C1311.68 266.8 1313.62 267.649 1315.08 269.348C1316.66 271.047 1317.45 273.231 1317.45 275.9C1317.45 278.569 1316.29 280.753 1313.99 282.452C1311.68 284.151 1308.71 285 1305.07 285H1304.71ZM1371.83 285.728C1363.34 285.728 1355.45 284.454 1348.17 281.906C1341.01 279.237 1335.43 275.9 1331.42 271.896C1329.6 269.955 1328.82 267.771 1329.06 265.344C1329.42 262.796 1330.64 260.733 1332.7 259.156C1335.13 257.215 1337.49 256.426 1339.8 256.79C1342.22 257.033 1344.29 258.064 1345.98 259.884C1348.05 262.189 1351.32 264.373 1355.81 266.436C1360.42 268.377 1365.52 269.348 1371.1 269.348C1378.14 269.348 1383.48 268.195 1387.12 265.89C1390.88 263.585 1392.82 260.612 1392.94 256.972C1393.06 253.332 1391.3 250.177 1387.66 247.508C1384.14 244.839 1377.65 242.655 1368.19 240.956C1355.93 238.529 1347.02 234.889 1341.43 230.036C1335.97 225.183 1333.24 219.237 1333.24 212.2C1333.24 206.012 1335.06 200.916 1338.7 196.912C1342.34 192.787 1347.02 189.753 1352.72 187.812C1358.42 185.749 1364.37 184.718 1370.55 184.718C1378.56 184.718 1385.66 185.992 1391.85 188.54C1398.04 191.088 1402.95 194.607 1406.59 199.096C1408.29 201.037 1409.08 203.1 1408.96 205.284C1408.84 207.347 1407.8 209.106 1405.86 210.562C1403.92 211.897 1401.62 212.321 1398.95 211.836C1396.28 211.351 1394.03 210.259 1392.21 208.56C1389.18 205.648 1385.9 203.646 1382.38 202.554C1378.87 201.462 1374.8 200.916 1370.19 200.916C1364.85 200.916 1360.3 201.826 1356.54 203.646C1352.9 205.466 1351.08 208.135 1351.08 211.654C1351.08 213.838 1351.63 215.84 1352.72 217.66C1353.93 219.359 1356.24 220.936 1359.63 222.392C1363.03 223.727 1368.01 225.061 1374.56 226.396C1383.66 228.216 1390.82 230.521 1396.03 233.312C1401.37 236.103 1405.2 239.379 1407.5 243.14C1409.81 246.78 1410.96 251.027 1410.96 255.88C1410.96 261.461 1409.44 266.497 1406.41 270.986C1403.5 275.475 1399.13 279.055 1393.3 281.724C1387.6 284.393 1380.44 285.728 1371.83 285.728ZM1481.2 285.728C1471.13 285.728 1462.16 283.605 1454.27 279.358C1446.5 274.99 1440.38 269.045 1435.89 261.522C1431.52 253.878 1429.33 245.142 1429.33 235.314C1429.33 225.365 1431.4 216.629 1435.52 209.106C1439.77 201.462 1445.59 195.517 1452.99 191.27C1460.4 186.902 1468.89 184.718 1478.47 184.718C1487.94 184.718 1496.07 186.841 1502.86 191.088C1509.66 195.213 1514.81 200.977 1518.33 208.378C1521.97 215.658 1523.79 224.091 1523.79 233.676C1523.79 235.981 1523 237.923 1521.43 239.5C1519.85 240.956 1517.85 241.684 1515.42 241.684H1442.07V227.124H1514.87L1507.41 232.22C1507.29 226.153 1506.08 220.754 1503.77 216.022C1501.47 211.169 1498.19 207.347 1493.94 204.556C1489.7 201.765 1484.54 200.37 1478.47 200.37C1471.56 200.37 1465.61 201.887 1460.64 204.92C1455.79 207.953 1452.08 212.139 1449.54 217.478C1446.99 222.695 1445.71 228.641 1445.71 235.314C1445.71 241.987 1447.23 247.933 1450.26 253.15C1453.3 258.367 1457.48 262.493 1462.82 265.526C1468.16 268.559 1474.29 270.076 1481.2 270.076C1484.97 270.076 1488.79 269.409 1492.67 268.074C1496.67 266.618 1499.89 264.98 1502.32 263.16C1504.14 261.825 1506.08 261.158 1508.14 261.158C1510.32 261.037 1512.21 261.643 1513.78 262.978C1515.85 264.798 1516.94 266.8 1517.06 268.984C1517.18 271.168 1516.21 273.049 1514.15 274.626C1510.02 277.902 1504.86 280.571 1498.68 282.634C1492.61 284.697 1486.79 285.728 1481.2 285.728ZM1596.97 285C1593.57 285 1590.96 283.544 1589.14 280.632C1587.32 277.72 1587.14 274.626 1588.6 271.35L1639.74 149.228C1641.56 144.981 1644.53 142.858 1648.66 142.858C1653.02 142.858 1656 144.981 1657.57 149.228L1708.9 271.714C1710.23 275.111 1709.99 278.205 1708.17 280.996C1706.47 283.665 1703.86 285 1700.34 285C1698.52 285 1696.76 284.515 1695.07 283.544C1693.49 282.452 1692.34 280.996 1691.61 279.176L1646.47 167.064H1651.57L1605.7 279.176C1604.85 281.117 1603.58 282.573 1601.88 283.544C1600.3 284.515 1598.67 285 1596.97 285ZM1606.61 253.696L1613.89 238.044H1685.24L1692.52 253.696H1606.61ZM1740.04 285C1737.37 285 1735.13 284.09 1733.31 282.27C1731.49 280.45 1730.58 278.205 1730.58 275.536V152.322C1730.58 149.531 1731.49 147.287 1733.31 145.588C1735.13 143.768 1737.37 142.858 1740.04 142.858C1742.83 142.858 1745.08 143.768 1746.78 145.588C1748.6 147.287 1749.51 149.531 1749.51 152.322V275.536C1749.51 278.205 1748.6 280.45 1746.78 282.27C1745.08 284.09 1742.83 285 1740.04 285Z"
          fill="url(#paint2_linear_1_2)"/>
    <defs>
        <linearGradient id="paint0_linear_1_2" x1="258.941" y1="104.147" x2="210.065" y2="72.5273"
                        gradientUnits="userSpaceOnUse">
            <stop stop-color="#D06604"/>
            <stop offset="1" stop-color="#C82400"/>
        </linearGradient>
        <linearGradient id="paint1_linear_1_2" x1="234.5" y1="117" x2="234.5" y2="344" gradientUnits="userSpaceOnUse">
            <stop stop-color="#D06604"/>
            <stop offset="1" stop-color="#C82400"/>
        </linearGradient>
        <linearGradient id="paint2_linear_1_2" x1="643.486" y1="125" x2="1495.42" y2="326.64"
                        gradientUnits="userSpaceOnUse">
            <stop stop-color="#D06604"/>
            <stop offset="1" stop-color="#C82400"/>
        </linearGradient>
    </defs>
</svg>
