<svg width="365" height="296" viewBox="0 0 365 296" fill="none" xmlns="http://www.w3.org/2000/svg">
    <path d="M158.065 24.5273C149.302 38.0734 153.139 56.1329 166.636 64.8644C180.132 73.5958 198.178 69.6928 206.941 56.1467C215.705 42.6006 211.867 24.5411 198.371 15.8097C184.874 7.07823 166.828 10.9813 158.065 24.5273Z"
          fill="url(#paint0_linear_1_54)"/>
    <path d="M300.862 114.642C304.207 130.505 302.032 145.335 294.336 159.131C294.07 159.609 294.212 159.849 294.762 159.849C313.581 159.86 332.223 159.852 350.688 159.822C370.14 159.787 369.147 184.467 351.45 184.511C319.586 184.594 287.722 184.638 255.858 184.644C255.557 184.644 255.329 184.774 255.175 185.034C244.917 202.38 235.103 219.964 224.827 237.292C224.502 237.841 223.825 239.025 222.797 240.844C217.82 249.65 212.808 258.432 207.76 267.19C204.241 273.294 199.249 283.446 194.444 290.197C192.493 292.943 189.559 294.741 185.64 295.592C177.731 297.319 172.306 293.412 168.573 286.777C151.834 257.083 134.705 227.609 117.798 198.012C115.191 193.441 112.393 189.041 109.402 184.813C109.195 184.523 108.914 184.384 108.56 184.396C106.981 184.461 105.344 184.497 103.648 184.503C73.8701 184.591 44.0954 184.63 14.3236 184.618C9.88469 184.618 6.37378 183.307 3.79084 180.684C-3.82499 172.96 0.625718 161.089 11.8677 159.999C13.0085 159.887 14.3531 159.831 15.9017 159.831C34.1478 159.837 52.3939 159.846 70.6399 159.857C71.0241 159.857 71.1276 159.686 70.9503 159.344C69.576 156.651 67.8915 153.825 66.8985 151.318C63.2221 142.028 61.9129 132.316 62.9709 122.181C66.1538 93.9127 90.2425 68.8424 119.819 69.2676C125.006 69.3473 134.998 68.2843 140.122 69.9143C147.57 72.2707 151.825 81.5636 146.585 88.4557C140.397 96.6146 127.018 93.1331 116.503 94.1608C107.487 95.0466 99.1262 100.194 93.8864 107.201C86.5365 117.008 85.5613 130.322 89.2229 141.936C91.0848 147.854 94.7464 153.966 98.3282 159.397C98.5824 159.781 98.937 159.964 99.3922 159.946C109.464 159.663 120.014 158.245 127.178 167.122C129.004 169.378 130.789 172.021 132.533 175.05C136.718 182.332 140.926 189.605 145.158 196.869C145.306 197.129 145.424 197.115 145.513 196.825C146.606 193.217 147.274 190.851 147.516 189.729C152.889 164.759 158.487 139.837 164.308 114.961C165.378 110.372 166.472 107.168 167.589 105.349C173.121 96.3489 185.631 94.0279 193.992 100.574C198.637 104.207 200.242 108.636 201.643 114.881C207.749 142.161 213.677 169.443 219.428 196.728C219.552 197.306 219.774 197.348 220.093 196.852C220.465 196.276 220.643 195.417 220.988 194.823C224.517 188.675 228.078 182.545 231.672 176.432C237.417 166.661 240.502 160.983 251.496 160.203C256.295 159.86 261.098 159.769 265.903 159.928C266.076 159.934 266.248 159.895 266.402 159.816C266.555 159.737 266.686 159.62 266.781 159.477C270.026 154.604 273.421 149.183 275.31 143.965C281.605 126.593 277.305 108.477 261.08 98.4218C251.576 92.5396 242.603 93.9127 232.142 93.833C228.448 93.8035 225.865 93.5436 224.393 93.0534C218.914 91.2285 215.837 86.0372 216.325 80.3676C216.937 73.316 223.613 69.1613 230.431 69.179C239.066 69.2056 248.889 68.6032 256.656 70.3749C278.555 75.3624 295.462 92.9648 300.862 114.642ZM182.572 261.202C182.588 261.23 182.611 261.254 182.639 261.27C182.667 261.287 182.699 261.295 182.732 261.295C182.765 261.295 182.798 261.287 182.828 261.27C182.857 261.254 182.882 261.23 182.9 261.202L200.978 228.672C201.451 227.822 201.584 226.921 201.377 225.97L183.042 141.227C182.883 140.471 182.717 140.471 182.546 141.227C176.277 169.319 170.745 197.8 163.644 225.749C163.46 226.447 163.529 227.188 163.839 227.84C169.132 239.055 176.251 249.978 182.572 261.202Z"
          fill="url(#paint1_linear_1_54)"/>
    <defs>
        <linearGradient id="paint0_linear_1_54" x1="206.941" y1="56.1467" x2="158.065" y2="24.5273"
                        gradientUnits="userSpaceOnUse">
            <stop stop-color="#D06604"/>
            <stop offset="1" stop-color="#C82400"/>
        </linearGradient>
        <linearGradient id="paint1_linear_1_54" x1="182.5" y1="69" x2="182.5" y2="296" gradientUnits="userSpaceOnUse">
            <stop stop-color="#D06604"/>
            <stop offset="1" stop-color="#C82400"/>
        </linearGradient>
    </defs>
</svg>
